<svg width="1600" height="1000" viewBox="0 0 1600 1000" fill="none" xmlns="http://www.w3.org/2000/svg">
  <defs>
    <linearGradient id="bg" x1="0" y1="0" x2="1600" y2="1000">
      <stop stop-color="#050913"/>
      <stop offset=".55" stop-color="#111827"/>
      <stop offset="1" stop-color="#1E1430"/>
    </linearGradient>
    <radialGradient id="glow" cx="0" cy="0" r="1" gradientUnits="userSpaceOnUse" gradientTransform="translate(820 480) rotate(90) scale(420 680)">
      <stop stop-color="#9FE8FF" stop-opacity=".52"/>
      <stop offset="1" stop-color="#9FE8FF" stop-opacity="0"/>
    </radialGradient>
  </defs>
  <rect width="1600" height="1000" fill="url(#bg)"/>
  <rect width="1600" height="1000" fill="url(#glow)"/>
  <rect x="128" y="128" width="1344" height="744" rx="44" fill="white" fill-opacity=".06" stroke="white" stroke-opacity=".18"/>
  <g transform="translate(220 220)">
    <rect width="300" height="560" rx="36" fill="#07111F" fill-opacity=".76" stroke="white" stroke-opacity=".14"/>
    <text x="38" y="70" fill="white" fill-opacity=".46" font-family="ui-monospace, monospace" font-size="15">SHOT 01</text>
    <path d="M80 254C140 120 218 120 252 254C214 386 130 388 80 254Z" fill="#9FE8FF" fill-opacity=".18" stroke="#9FE8FF" stroke-opacity=".58"/>
    <text x="38" y="500" fill="white" fill-opacity=".72" font-family="ui-sans-serif, system-ui" font-size="28" font-weight="700">Signal emerges</text>
  </g>
  <g transform="translate(650 220)">
    <rect width="300" height="560" rx="36" fill="#07111F" fill-opacity=".62" stroke="white" stroke-opacity=".14"/>
    <text x="38" y="70" fill="white" fill-opacity=".46" font-family="ui-monospace, monospace" font-size="15">SHOT 02</text>
    <circle cx="150" cy="254" r="96" fill="#B8F7D4" fill-opacity=".18" stroke="#B8F7D4" stroke-opacity=".56"/>
    <path d="M84 254H216M150 188V320" stroke="white" stroke-opacity=".72" stroke-width="8" stroke-linecap="round"/>
    <text x="38" y="500" fill="white" fill-opacity=".72" font-family="ui-sans-serif, system-ui" font-size="28" font-weight="700">Mark resolves</text>
  </g>
  <g transform="translate(1080 220)">
    <rect width="300" height="560" rx="36" fill="#07111F" fill-opacity=".54" stroke="white" stroke-opacity=".14"/>
    <text x="38" y="70" fill="white" fill-opacity=".46" font-family="ui-monospace, monospace" font-size="15">SHOT 03</text>
    <rect x="66" y="172" width="168" height="168" rx="42" fill="white" fill-opacity=".13" stroke="white" stroke-opacity=".52"/>
    <text x="96" y="270" fill="white" font-family="ui-sans-serif, system-ui" font-size="72" font-weight="800">A</text>
    <text x="38" y="500" fill="white" fill-opacity=".72" font-family="ui-sans-serif, system-ui" font-size="28" font-weight="700">Hero lockup</text>
  </g>
  <text x="220" y="890" fill="#9FE8FF" fill-opacity=".72" font-family="ui-monospace, monospace" font-size="18" letter-spacing="6">8 SECOND BRAND MOTION / FIRST FRAME BOARD</text>
</svg>
