<svg xmlns="http://www.w3.org/2000/svg" viewBox="0 0 1200 750" role="img" aria-labelledby="title desc">
  <title id="title">Cinematic taco deconstruction commercial</title>
  <desc id="desc">A premium taco hero image with ingredients orbiting in a controlled spiral over a dark studio background.</desc>
  <defs>
    <radialGradient id="warm" cx="46%" cy="55%" r="42%">
      <stop offset="0" stop-color="#fff0b8" stop-opacity=".8"/>
      <stop offset=".45" stop-color="#d8842f" stop-opacity=".32"/>
      <stop offset="1" stop-color="#060708" stop-opacity="0"/>
    </radialGradient>
    <linearGradient id="shell" x1="0" x2="1" y1="0" y2="1">
      <stop offset="0" stop-color="#ffe28b"/>
      <stop offset=".55" stop-color="#d88a32"/>
      <stop offset="1" stop-color="#6d3514"/>
    </linearGradient>
    <filter id="soft">
      <feGaussianBlur stdDeviation="8"/>
    </filter>
  </defs>
  <rect width="1200" height="750" fill="#060708"/>
  <rect width="1200" height="750" fill="url(#warm)"/>
  <ellipse cx="575" cy="590" rx="260" ry="54" fill="#000" opacity=".55"/>
  <path d="M385 512c58-108 259-151 390-70 48 30 68 79 53 126-159-60-301-58-443-56Z" fill="url(#shell)" stroke="#ffd792" stroke-opacity=".62" stroke-width="4"/>
  <path d="M424 500c81-58 250-82 359-20" fill="none" stroke="#5a250e" stroke-opacity=".38" stroke-width="12" stroke-linecap="round"/>
  <g>
    <ellipse cx="548" cy="466" rx="35" ry="18" fill="#5a2a16" transform="rotate(-12 548 466)"/>
    <ellipse cx="634" cy="452" rx="42" ry="19" fill="#6c321a" transform="rotate(11 634 452)"/>
    <circle cx="598" cy="492" r="14" fill="#e33b2e"/>
    <circle cx="675" cy="490" r="12" fill="#e33b2e"/>
    <rect x="523" y="495" width="72" height="14" rx="7" fill="#f4d66a" transform="rotate(-10 523 495)"/>
    <path d="M497 453c45 14 87 12 126-8" stroke="#51b24b" stroke-width="12" stroke-linecap="round" fill="none"/>
  </g>
  <g fill="none" stroke="#ffffff" stroke-opacity=".18" stroke-width="2">
    <path d="M245 540C384 312 636 206 946 160"/>
    <path d="M310 610C500 332 690 255 1010 286"/>
  </g>
  <g>
    <circle cx="290" cy="530" r="18" fill="#e5392a"/>
    <circle cx="380" cy="394" r="12" fill="#51b24b"/>
    <circle cx="504" cy="306" r="20" fill="#f0c957"/>
    <circle cx="662" cy="245" r="15" fill="#e5392a"/>
    <circle cx="824" cy="206" r="13" fill="#51b24b"/>
    <circle cx="958" cy="170" r="18" fill="#f7df8a"/>
    <rect x="382" y="559" width="44" height="12" rx="6" fill="#f4d66a" transform="rotate(-21 382 559)"/>
    <rect x="768" y="288" width="60" height="14" rx="7" fill="#5d2b16" transform="rotate(16 768 288)"/>
    <rect x="904" y="302" width="42" height="10" rx="5" fill="#f4d66a" transform="rotate(-9 904 302)"/>
  </g>
  <g opacity=".4" filter="url(#soft)">
    <path d="M690 403c54-74 84-132 66-174" stroke="#fff4cc" stroke-width="20" stroke-linecap="round" fill="none"/>
    <path d="M510 420c-35-70-31-130 12-181" stroke="#fff4cc" stroke-width="15" stroke-linecap="round" fill="none"/>
  </g>
  <rect x="34" y="34" width="1132" height="682" rx="36" fill="none" stroke="#ffffff" stroke-opacity=".08"/>
</svg>
