<svg width="1600" height="1000" viewBox="0 0 1600 1000" fill="none" xmlns="http://www.w3.org/2000/svg">
  <defs>
    <linearGradient id="bg" x1="0" y1="0" x2="1600" y2="1000">
      <stop stop-color="#050913"/>
      <stop offset=".5" stop-color="#0D2035"/>
      <stop offset="1" stop-color="#241735"/>
    </linearGradient>
    <radialGradient id="r" cx="0" cy="0" r="1" gradientUnits="userSpaceOnUse" gradientTransform="translate(760 470) rotate(90) scale(480 700)">
      <stop stop-color="#B8F7D4" stop-opacity=".34"/>
      <stop offset="1" stop-color="#B8F7D4" stop-opacity="0"/>
    </radialGradient>
  </defs>
  <rect width="1600" height="1000" fill="url(#bg)"/>
  <rect width="1600" height="1000" fill="url(#r)"/>
  <g opacity=".12">
    <path d="M0 500H1600M800 0V1000" stroke="white"/>
    <circle cx="800" cy="500" r="360" stroke="white"/>
    <circle cx="800" cy="500" r="220" stroke="white"/>
  </g>
  <g transform="translate(210 330)">
    <rect width="300" height="210" rx="36" fill="white" fill-opacity=".08" stroke="white" stroke-opacity=".16"/>
    <text x="36" y="66" fill="white" fill-opacity=".48" font-family="ui-monospace, monospace" font-size="16">INPUT</text>
    <text x="36" y="126" fill="white" fill-opacity=".9" font-family="ui-sans-serif, system-ui" font-size="34" font-weight="700">Messy notes</text>
  </g>
  <g transform="translate(650 300)">
    <rect width="300" height="270" rx="44" fill="white" fill-opacity=".1" stroke="#9FE8FF" stroke-opacity=".45"/>
    <text x="36" y="66" fill="#9FE8FF" fill-opacity=".76" font-family="ui-monospace, monospace" font-size="16">CONTEXT</text>
    <text x="36" y="126" fill="white" fill-opacity=".92" font-family="ui-sans-serif, system-ui" font-size="34" font-weight="700">Filter</text>
    <text x="36" y="172" fill="white" fill-opacity=".92" font-family="ui-sans-serif, system-ui" font-size="34" font-weight="700">Rank</text>
    <text x="36" y="218" fill="white" fill-opacity=".92" font-family="ui-sans-serif, system-ui" font-size="34" font-weight="700">Assemble</text>
  </g>
  <g transform="translate(1090 330)">
    <rect width="300" height="210" rx="36" fill="white" fill-opacity=".08" stroke="white" stroke-opacity=".16"/>
    <text x="36" y="66" fill="white" fill-opacity=".48" font-family="ui-monospace, monospace" font-size="16">OUTPUT</text>
    <text x="36" y="126" fill="white" fill-opacity=".9" font-family="ui-sans-serif, system-ui" font-size="34" font-weight="700">Useful plan</text>
  </g>
  <path d="M535 435H620M980 435H1065" stroke="#9FE8FF" stroke-opacity=".72" stroke-width="10" stroke-linecap="round"/>
  <path d="M600 410L630 435L600 460M1045 410L1075 435L1045 460" stroke="#9FE8FF" stroke-opacity=".72" stroke-width="10" stroke-linecap="round" stroke-linejoin="round"/>
  <text x="210" y="785" fill="#9FE8FF" fill-opacity=".72" font-family="ui-monospace, monospace" font-size="18" letter-spacing="6">12 SECOND EXPLAINER OPENER / STORYBOARD FRAME</text>
</svg>
