<svg width="1600" height="1000" viewBox="0 0 1600 1000" fill="none" xmlns="http://www.w3.org/2000/svg">
  <defs>
    <linearGradient id="bg" x1="0" y1="0" x2="1600" y2="1000">
      <stop stop-color="#1A0B10"/>
      <stop offset=".55" stop-color="#402015"/>
      <stop offset="1" stop-color="#0F1017"/>
    </linearGradient>
    <radialGradient id="lantern" cx="0" cy="0" r="1" gradientUnits="userSpaceOnUse" gradientTransform="translate(820 250) scale(560 300)">
      <stop stop-color="#FFB84D" stop-opacity=".62"/>
      <stop offset="1" stop-color="#FFB84D" stop-opacity="0"/>
    </radialGradient>
  </defs>
  <rect width="1600" height="1000" fill="url(#bg)"/>
  <rect width="1600" height="1000" fill="url(#lantern)"/>
  <g opacity=".75">
    <circle cx="260" cy="160" r="56" fill="#E0362E"/>
    <circle cx="480" cy="120" r="44" fill="#F2A23A"/>
    <circle cx="1150" cy="150" r="60" fill="#E0362E"/>
    <circle cx="1360" cy="220" r="42" fill="#F2A23A"/>
    <path d="M260 104V70M260 216V250M1150 90V56M1150 210V246" stroke="#F6C56C" stroke-width="5"/>
  </g>
  <rect x="220" y="290" width="1160" height="540" rx="44" fill="#09090E" fill-opacity=".42" stroke="white" stroke-opacity=".14"/>
  <ellipse cx="800" cy="750" rx="450" ry="60" fill="#05050A" fill-opacity=".5"/>
  <g transform="translate(500 360)">
    <ellipse cx="300" cy="270" rx="300" ry="112" fill="#F0E1C6"/>
    <ellipse cx="300" cy="250" rx="252" ry="86" fill="#B33A26"/>
    <path d="M96 244C168 160 256 162 314 230C384 148 490 166 526 250C442 302 190 314 96 244Z" fill="#E86837"/>
    <path d="M170 216C216 186 260 190 302 228M338 226C392 190 442 196 486 238" stroke="#FFE2A4" stroke-width="14" stroke-linecap="round"/>
    <circle cx="236" cy="258" r="16" fill="#2F6B42"/>
    <circle cx="374" cy="260" r="14" fill="#2F6B42"/>
    <circle cx="430" cy="226" r="12" fill="#F6C56C"/>
  </g>
  <text x="250" y="398" fill="#F8DFA6" font-family="ui-sans-serif, system-ui" font-size="64" font-weight="900">夜市烟火</text>
  <text x="252" y="450" fill="#F8DFA6" fill-opacity=".68" font-family="ui-monospace, monospace" font-size="20" letter-spacing="6">GUOCHAO FOOD POSTER</text>
</svg>
