<svg xmlns="http://www.w3.org/2000/svg" viewBox="0 0 1200 750" role="img" aria-labelledby="title desc">
  <title id="title">Cream-toned late-night study room portrait</title>
  <desc id="desc">A warm apartment study corner with a fictional portrait silhouette, desk lamp, laptop, notes, and city lights.</desc>
  <defs>
    <radialGradient id="lampGlow" cx="38%" cy="36%" r="44%">
      <stop offset="0" stop-color="#fff4cf" stop-opacity=".95"/>
      <stop offset=".42" stop-color="#f5c98b" stop-opacity=".35"/>
      <stop offset="1" stop-color="#08111f" stop-opacity="0"/>
    </radialGradient>
    <linearGradient id="room" x1="0" x2="1" y1="0" y2="1">
      <stop offset="0" stop-color="#201522"/>
      <stop offset=".45" stop-color="#483333"/>
      <stop offset="1" stop-color="#07111f"/>
    </linearGradient>
    <linearGradient id="desk" x1="0" x2="1">
      <stop offset="0" stop-color="#fff2da"/>
      <stop offset="1" stop-color="#caa780"/>
    </linearGradient>
    <filter id="blur" x="-20%" y="-20%" width="140%" height="140%">
      <feGaussianBlur stdDeviation="18"/>
    </filter>
  </defs>
  <rect width="1200" height="750" fill="url(#room)"/>
  <rect width="1200" height="750" fill="url(#lampGlow)"/>
  <g opacity=".8">
    <rect x="820" y="90" width="250" height="300" rx="8" fill="#0b1726" stroke="#e7d4bb" stroke-opacity=".18"/>
    <g fill="#9fe8ff" opacity=".55">
      <rect x="850" y="125" width="20" height="44" rx="4"/>
      <rect x="902" y="174" width="18" height="64" rx="4"/>
      <rect x="966" y="126" width="16" height="86" rx="4"/>
      <rect x="1021" y="220" width="18" height="52" rx="4"/>
      <rect x="888" y="286" width="14" height="36" rx="4"/>
      <rect x="1002" y="310" width="22" height="40" rx="4"/>
    </g>
  </g>
  <g filter="url(#blur)" opacity=".28">
    <ellipse cx="370" cy="320" rx="250" ry="170" fill="#f8d69b"/>
    <ellipse cx="925" cy="255" rx="180" ry="115" fill="#67d8ff"/>
  </g>
  <rect x="125" y="472" width="860" height="50" rx="18" fill="url(#desk)"/>
  <rect x="175" y="522" width="760" height="22" rx="10" fill="#5b3f35" opacity=".75"/>
  <g>
    <path d="M270 344c4-66 47-112 107-112 59 0 104 44 108 109 4 57-32 91-106 92-70 1-112-31-109-89Z" fill="#19111a"/>
    <path d="M337 222c42-33 103-22 137 27 25 36 33 86 12 129-29-55-95-50-131-108-21 45-45 58-86 76-12-50 14-99 68-124Z" fill="#120c12"/>
    <ellipse cx="379" cy="353" rx="61" ry="74" fill="#edc9aa"/>
    <path d="M295 489c34-54 63-76 92-76 38 0 70 27 106 76H295Z" fill="#f7e1c2"/>
    <path d="M331 507c20-58 61-68 94-1" fill="none" stroke="#d3a57c" stroke-width="7" stroke-linecap="round" opacity=".55"/>
  </g>
  <g>
    <path d="M560 395h210c18 0 32 14 32 32v45H528v-45c0-18 14-32 32-32Z" fill="#151e2c" stroke="#d7c0a2" stroke-opacity=".18"/>
    <rect x="560" y="420" width="210" height="24" rx="10" fill="#9fe8ff" opacity=".24"/>
    <rect x="526" y="470" width="306" height="16" rx="8" fill="#0c1320"/>
  </g>
  <g fill="#f8e5ca" opacity=".88">
    <rect x="650" y="535" width="132" height="14" rx="7" transform="rotate(-7 650 535)"/>
    <rect x="688" y="557" width="92" height="12" rx="6" transform="rotate(-7 688 557)"/>
    <rect x="176" y="538" width="86" height="12" rx="6" transform="rotate(6 176 538)"/>
  </g>
  <g stroke="#fff1cf" stroke-linecap="round" opacity=".6">
    <path d="M222 342h84"/>
    <path d="M264 342v-92"/>
    <path d="M240 250h72"/>
  </g>
  <g opacity=".38">
    <circle cx="676" cy="164" r="4" fill="#fff6df"/>
    <circle cx="700" cy="192" r="3" fill="#fff6df"/>
    <circle cx="732" cy="151" r="5" fill="#fff6df"/>
    <circle cx="761" cy="210" r="3" fill="#fff6df"/>
  </g>
  <rect x="34" y="34" width="1132" height="682" rx="36" fill="none" stroke="#ffffff" stroke-opacity=".08"/>
</svg>
