<svg xmlns="http://www.w3.org/2000/svg" viewBox="0 0 1200 750" role="img" aria-labelledby="title desc">
  <title id="title">Late-night ramen healing short film</title>
  <desc id="desc">A warm late-night ramen counter with a small cinematic mascot chef, steaming noodles, lantern light, and rain outside.</desc>
  <defs>
    <linearGradient id="night" x1="0" x2="1" y1="0" y2="1">
      <stop offset="0" stop-color="#07111f"/>
      <stop offset=".5" stop-color="#1d1720"/>
      <stop offset="1" stop-color="#07090d"/>
    </linearGradient>
    <radialGradient id="lantern" cx="50%" cy="22%" r="48%">
      <stop offset="0" stop-color="#ffd98a" stop-opacity=".9"/>
      <stop offset=".4" stop-color="#d77a30" stop-opacity=".34"/>
      <stop offset="1" stop-color="#000" stop-opacity="0"/>
    </radialGradient>
    <filter id="steam" x="-20%" y="-20%" width="140%" height="140%">
      <feGaussianBlur stdDeviation="10"/>
    </filter>
  </defs>
  <rect width="1200" height="750" fill="url(#night)"/>
  <rect width="1200" height="750" fill="url(#lantern)"/>
  <g opacity=".36" stroke="#9fe8ff" stroke-width="2" stroke-linecap="round">
    <path d="M100 102v420M146 96v420M1010 88v430M1058 104v410"/>
    <path d="M88 210h132M982 218h132"/>
    <path d="M88 354h132M982 366h132"/>
  </g>
  <rect x="150" y="502" width="900" height="64" rx="22" fill="#3a2318"/>
  <rect x="180" y="466" width="840" height="52" rx="20" fill="#6b3b22"/>
  <g transform="translate(0 10)">
    <circle cx="600" cy="338" r="86" fill="#d98a42"/>
    <path d="M522 297 486 238l70 33M678 297l36-59-70 33" fill="#d98a42"/>
    <circle cx="568" cy="335" r="8" fill="#241816"/>
    <circle cx="632" cy="335" r="8" fill="#241816"/>
    <path d="M574 372c20 15 42 15 62 0" fill="none" stroke="#2a1713" stroke-width="7" stroke-linecap="round"/>
    <path d="M500 430c29-47 62-70 100-70 41 0 77 23 108 70Z" fill="#f8f2e8"/>
    <rect x="548" y="412" width="104" height="32" rx="16" fill="#e4dfd3"/>
  </g>
  <g>
    <ellipse cx="600" cy="525" rx="205" ry="62" fill="#151116" opacity=".6"/>
    <ellipse cx="600" cy="505" rx="178" ry="72" fill="#efe4d2"/>
    <ellipse cx="600" cy="500" rx="142" ry="50" fill="#7c351d"/>
    <path d="M474 498c70-31 166-32 248-4" fill="none" stroke="#efc66a" stroke-width="11" stroke-linecap="round"/>
    <path d="M510 520c74-26 149-25 221 5" fill="none" stroke="#efc66a" stroke-width="10" stroke-linecap="round"/>
    <circle cx="540" cy="486" r="10" fill="#3aa65a"/>
    <circle cx="650" cy="482" r="9" fill="#3aa65a"/>
    <circle cx="702" cy="507" r="7" fill="#3aa65a"/>
  </g>
  <g opacity=".36" filter="url(#steam)" fill="none" stroke="#fff2d5" stroke-width="18" stroke-linecap="round">
    <path d="M500 438c-36-60 34-87 0-146"/>
    <path d="M604 438c-42-68 42-98 7-162"/>
    <path d="M710 438c-30-56 28-82 4-134"/>
  </g>
  <g opacity=".7">
    <rect x="531" y="116" width="138" height="88" rx="42" fill="#f3c66d"/>
    <path d="M548 204h104" stroke="#8b3f1d" stroke-width="8" stroke-linecap="round"/>
    <path d="M600 80v36" stroke="#f5d48a" stroke-width="5" stroke-linecap="round"/>
  </g>
  <g opacity=".42" stroke="#9fe8ff" stroke-linecap="round">
    <path d="M270 90v420M300 70v420M326 112v400M900 78v420M930 108v420"/>
  </g>
  <rect x="34" y="34" width="1132" height="682" rx="36" fill="none" stroke="#ffffff" stroke-opacity=".08"/>
</svg>
