<svg width="1600" height="1000" viewBox="0 0 1600 1000" fill="none" xmlns="http://www.w3.org/2000/svg">
  <defs>
    <linearGradient id="bg" x1="0" y1="0" x2="1600" y2="1000">
      <stop stop-color="#07111F"/>
      <stop offset=".5" stop-color="#11263A"/>
      <stop offset="1" stop-color="#160E18"/>
    </linearGradient>
    <radialGradient id="red" cx="0" cy="0" r="1" gradientUnits="userSpaceOnUse" gradientTransform="translate(1130 300) rotate(103) scale(460 380)">
      <stop stop-color="#FF5B6E" stop-opacity=".62"/>
      <stop offset="1" stop-color="#FF5B6E" stop-opacity="0"/>
    </radialGradient>
    <radialGradient id="cyan" cx="0" cy="0" r="1" gradientUnits="userSpaceOnUse" gradientTransform="translate(420 240) rotate(61) scale(520 340)">
      <stop stop-color="#73E7FF" stop-opacity=".58"/>
      <stop offset="1" stop-color="#73E7FF" stop-opacity="0"/>
    </radialGradient>
    <filter id="blur"><feGaussianBlur stdDeviation="16"/></filter>
  </defs>
  <rect width="1600" height="1000" fill="url(#bg)"/>
  <rect width="1600" height="1000" fill="url(#red)"/>
  <rect width="1600" height="1000" fill="url(#cyan)"/>
  <g opacity=".18">
    <path d="M130 0L35 1000M300 0L205 1000M470 0L375 1000M640 0L545 1000M810 0L715 1000M980 0L885 1000M1150 0L1055 1000M1320 0L1225 1000M1490 0L1395 1000" stroke="white"/>
  </g>
  <g opacity=".54">
    <path d="M260 110V850M380 80V790M1220 90V860M1360 140V820" stroke="#73E7FF" stroke-width="3" stroke-linecap="round"/>
    <path d="M930 120V880M1040 170V820" stroke="#FF5B6E" stroke-width="3" stroke-linecap="round"/>
  </g>
  <rect x="250" y="162" width="1100" height="676" rx="34" fill="#030711" fill-opacity=".36" stroke="white" stroke-opacity=".16"/>
  <path d="M290 760C470 690 610 690 790 760C970 830 1110 830 1310 744" stroke="#73E7FF" stroke-opacity=".3" stroke-width="16" stroke-linecap="round" filter="url(#blur)"/>
  <ellipse cx="806" cy="720" rx="390" ry="58" fill="#020711" fill-opacity=".62"/>
  <g transform="translate(685 268)">
    <path d="M116 0C186 18 222 78 226 164C230 250 190 326 118 336C44 326 4 250 8 164C12 78 48 18 116 0Z" fill="#111A24"/>
    <path d="M48 132C68 80 102 58 146 63C176 67 196 87 211 116C199 49 162 11 116 0C61 12 24 61 12 132C23 121 34 121 48 132Z" fill="#0A0F16"/>
    <rect x="52" y="150" width="136" height="112" rx="56" fill="#F2D0BE"/>
    <rect x="54" y="212" width="132" height="86" rx="54" fill="#0E141C"/>
    <path d="M55 176C85 190 139 191 188 170" stroke="#2F2021" stroke-width="9" stroke-linecap="round"/>
  </g>
  <g transform="translate(447 234)">
    <rect width="232" height="92" rx="18" fill="#E83B52" fill-opacity=".9"/>
    <text x="38" y="58" fill="#fff9f3" font-family="ui-sans-serif, system-ui" font-size="34" font-weight="800">午夜霓虹</text>
  </g>
  <g transform="translate(970 640)">
    <rect width="260" height="64" rx="32" fill="#73E7FF" fill-opacity=".18" stroke="#73E7FF" stroke-opacity=".54"/>
    <text x="36" y="41" fill="#E7FBFF" font-family="ui-monospace, monospace" font-size="18" letter-spacing="6">RAINY NOIR</text>
  </g>
</svg>
