<svg width="1600" height="1000" viewBox="0 0 1600 1000" fill="none" xmlns="http://www.w3.org/2000/svg">
  <defs>
    <linearGradient id="bg" x1="0" y1="0" x2="1600" y2="1000">
      <stop stop-color="#ECEFF3"/>
      <stop offset=".58" stop-color="#C9D8E2"/>
      <stop offset="1" stop-color="#A8B8C5"/>
    </linearGradient>
    <radialGradient id="spot" cx="0" cy="0" r="1" gradientUnits="userSpaceOnUse" gradientTransform="translate(800 420) rotate(90) scale(510 760)">
      <stop stop-color="white"/>
      <stop offset="1" stop-color="white" stop-opacity="0"/>
    </radialGradient>
    <filter id="shadow" x="-40%" y="-40%" width="180%" height="180%">
      <feGaussianBlur stdDeviation="28"/>
    </filter>
  </defs>
  <rect width="1600" height="1000" fill="url(#bg)"/>
  <rect width="1600" height="1000" fill="url(#spot)" opacity=".82"/>
  <ellipse cx="805" cy="808" rx="340" ry="54" fill="#233040" fill-opacity=".32" filter="url(#shadow)"/>
  <rect x="582" y="172" width="436" height="604" rx="92" fill="#111B26"/>
  <rect x="614" y="204" width="372" height="540" rx="70" fill="url(#bg)" fill-opacity=".2" stroke="white" stroke-opacity=".5"/>
  <rect x="664" y="260" width="272" height="330" rx="42" fill="white" fill-opacity=".16" stroke="white" stroke-opacity=".48"/>
  <circle cx="800" cy="426" r="92" fill="#9FE8FF" fill-opacity=".24"/>
  <circle cx="800" cy="426" r="52" fill="white" fill-opacity=".52"/>
  <path d="M760 426H840M800 386V466" stroke="#172333" stroke-width="12" stroke-linecap="round"/>
  <text x="650" y="648" fill="white" fill-opacity=".86" font-family="ui-sans-serif, system-ui" font-size="34" font-weight="700">Clarity Dock</text>
  <text x="650" y="690" fill="white" fill-opacity=".48" font-family="ui-monospace, monospace" font-size="16">AI DESK DEVICE</text>
  <rect x="1110" y="226" width="210" height="80" rx="40" fill="white" fill-opacity=".34" stroke="white" stroke-opacity=".5"/>
  <text x="1150" y="275" fill="#172333" fill-opacity=".72" font-family="ui-monospace, monospace" font-size="18">matte glass</text>
  <rect x="282" y="612" width="252" height="96" rx="48" fill="white" fill-opacity=".34" stroke="white" stroke-opacity=".5"/>
  <text x="330" y="670" fill="#172333" fill-opacity=".72" font-family="ui-monospace, monospace" font-size="18">soft shadow</text>
</svg>
