<svg width="1600" height="1000" viewBox="0 0 1600 1000" fill="none" xmlns="http://www.w3.org/2000/svg">
  <defs>
    <linearGradient id="bg" x1="0" y1="0" x2="1600" y2="1000">
      <stop stop-color="#08111F"/>
      <stop offset=".58" stop-color="#182A3B"/>
      <stop offset="1" stop-color="#121827"/>
    </linearGradient>
    <radialGradient id="a" cx="0" cy="0" r="1" gradientUnits="userSpaceOnUse" gradientTransform="translate(1160 210) rotate(112) scale(520 320)">
      <stop stop-color="#B8F7D4" stop-opacity=".45"/>
      <stop offset="1" stop-color="#B8F7D4" stop-opacity="0"/>
    </radialGradient>
  </defs>
  <rect width="1600" height="1000" fill="url(#bg)"/>
  <rect width="1600" height="1000" fill="url(#a)"/>
  <rect x="150" y="120" width="1300" height="760" rx="52" fill="white" fill-opacity=".08" stroke="white" stroke-opacity=".2"/>
  <rect x="210" y="190" width="290" height="620" rx="34" fill="#07111F" fill-opacity=".72" stroke="white" stroke-opacity=".12"/>
  <rect x="540" y="190" width="850" height="620" rx="34" fill="#07111F" fill-opacity=".48" stroke="white" stroke-opacity=".12"/>
  <text x="260" y="272" fill="white" fill-opacity=".94" font-family="ui-sans-serif, system-ui" font-size="38" font-weight="700">SignalOps</text>
  <text x="260" y="316" fill="white" fill-opacity=".42" font-family="ui-monospace, monospace" font-size="16">AUTOMATION CONTROL</text>
  <g transform="translate(260 390)">
    <rect width="180" height="44" rx="22" fill="#9FE8FF" fill-opacity=".16"/>
    <text x="24" y="29" fill="#9FE8FF" fill-opacity=".85" font-family="ui-monospace, monospace" font-size="16">Live runs</text>
  </g>
  <g transform="translate(260 462)">
    <rect width="170" height="12" rx="6" fill="white" fill-opacity=".16"/>
    <rect y="42" width="210" height="12" rx="6" fill="white" fill-opacity=".11"/>
    <rect y="84" width="150" height="12" rx="6" fill="white" fill-opacity=".11"/>
    <rect y="126" width="190" height="12" rx="6" fill="white" fill-opacity=".11"/>
  </g>
  <g transform="translate(600 250)">
    <rect width="320" height="178" rx="28" fill="white" fill-opacity=".08"/>
    <text x="30" y="52" fill="white" fill-opacity=".48" font-family="ui-monospace, monospace" font-size="15">SUCCESS RATE</text>
    <text x="30" y="112" fill="white" font-family="ui-sans-serif, system-ui" font-size="56" font-weight="700">98.4%</text>
    <path d="M34 142H286" stroke="white" stroke-opacity=".12" stroke-width="8" stroke-linecap="round"/>
    <path d="M34 142H240" stroke="#B8F7D4" stroke-opacity=".9" stroke-width="8" stroke-linecap="round"/>
  </g>
  <g transform="translate(960 250)">
    <rect width="360" height="178" rx="28" fill="white" fill-opacity=".08"/>
    <text x="30" y="52" fill="white" fill-opacity=".48" font-family="ui-monospace, monospace" font-size="15">QUEUE</text>
    <text x="30" y="112" fill="white" font-family="ui-sans-serif, system-ui" font-size="56" font-weight="700">42</text>
    <circle cx="286" cy="88" r="42" fill="#9FE8FF" fill-opacity=".18" stroke="#9FE8FF" stroke-opacity=".55"/>
  </g>
  <g transform="translate(600 470)">
    <rect width="720" height="270" rx="32" fill="white" fill-opacity=".065"/>
    <path d="M54 210C138 124 219 142 292 170C407 215 484 62 658 92" stroke="#9FE8FF" stroke-width="7" stroke-linecap="round"/>
    <path d="M54 228C169 180 253 244 354 190C462 132 518 180 658 128" stroke="#B8F7D4" stroke-width="7" stroke-linecap="round" opacity=".72"/>
    <text x="38" y="52" fill="white" fill-opacity=".5" font-family="ui-monospace, monospace" font-size="15">agent throughput</text>
  </g>
</svg>
