<svg xmlns="http://www.w3.org/2000/svg" viewBox="0 0 1200 750" role="img" aria-labelledby="title desc">
  <title id="title">Wall Street black ice bullet-time comedy short</title>
  <desc id="desc">A fictional office worker slips on black ice while coffee and papers freeze in a cinematic bullet-time moment.</desc>
  <defs>
    <linearGradient id="city" x1="0" x2="1" y1="0" y2="1">
      <stop offset="0" stop-color="#d8e4ee"/>
      <stop offset=".45" stop-color="#5d748a"/>
      <stop offset="1" stop-color="#0d1622"/>
    </linearGradient>
    <linearGradient id="ice" x1="0" x2="1">
      <stop offset="0" stop-color="#dff7ff" stop-opacity=".2"/>
      <stop offset=".5" stop-color="#9fe8ff" stop-opacity=".7"/>
      <stop offset="1" stop-color="#ffffff" stop-opacity=".18"/>
    </linearGradient>
    <filter id="blur">
      <feGaussianBlur stdDeviation="9"/>
    </filter>
  </defs>
  <rect width="1200" height="750" fill="url(#city)"/>
  <g opacity=".32" fill="#07111f">
    <rect x="70" y="80" width="160" height="430"/>
    <rect x="280" y="34" width="210" height="470"/>
    <rect x="740" y="60" width="180" height="440"/>
    <rect x="966" y="118" width="150" height="390"/>
  </g>
  <g opacity=".22" fill="#e7faff">
    <rect x="110" y="130" width="36" height="52"/>
    <rect x="168" y="226" width="36" height="62"/>
    <rect x="324" y="96" width="42" height="70"/>
    <rect x="402" y="238" width="42" height="68"/>
    <rect x="790" y="130" width="40" height="70"/>
    <rect x="1004" y="218" width="36" height="64"/>
  </g>
  <path d="M0 520c278-54 601-53 1200 10v220H0Z" fill="#111b27"/>
  <path d="M108 574c244-43 572-36 968 23" fill="none" stroke="url(#ice)" stroke-width="30" stroke-linecap="round"/>
  <g filter="url(#blur)" opacity=".35">
    <ellipse cx="615" cy="582" rx="280" ry="52" fill="#9fe8ff"/>
  </g>
  <g transform="translate(0 0)">
    <path d="M570 260c44 2 76 39 70 82-6 41-42 68-82 61-44-8-70-48-60-91 8-34 37-54 72-52Z" fill="#e3c2a0"/>
    <path d="M513 360c54 15 109 7 155-24l80 160-252 18Z" fill="#16202e"/>
    <path d="M520 410 402 350" stroke="#16202e" stroke-width="28" stroke-linecap="round"/>
    <path d="M670 410 790 348" stroke="#16202e" stroke-width="28" stroke-linecap="round"/>
    <path d="M548 505 438 626" stroke="#1c2b3b" stroke-width="34" stroke-linecap="round"/>
    <path d="M668 502 820 594" stroke="#1c2b3b" stroke-width="34" stroke-linecap="round"/>
    <path d="M492 300c30-72 129-66 160-8-53-17-103-18-160 8Z" fill="#1c1b1d"/>
  </g>
  <g fill="#ffffff" opacity=".9">
    <rect x="300" y="230" width="76" height="48" rx="4" transform="rotate(-22 300 230)"/>
    <rect x="840" y="260" width="72" height="46" rx="4" transform="rotate(17 840 260)"/>
    <rect x="756" y="180" width="64" height="42" rx="4" transform="rotate(-38 756 180)"/>
    <rect x="420" y="176" width="70" height="44" rx="4" transform="rotate(30 420 176)"/>
  </g>
  <g>
    <path d="M382 262c60-18 100-8 122 28" fill="none" stroke="#c07938" stroke-width="12" stroke-linecap="round"/>
    <circle cx="394" cy="260" r="7" fill="#c07938"/>
    <circle cx="434" cy="258" r="6" fill="#c07938"/>
    <circle cx="474" cy="276" r="5" fill="#c07938"/>
    <rect x="326" y="298" width="50" height="64" rx="10" fill="#f4fbff" transform="rotate(-21 326 298)"/>
  </g>
  <rect x="34" y="34" width="1132" height="682" rx="36" fill="none" stroke="#ffffff" stroke-opacity=".12"/>
</svg>
